<svg width="72" height="72" viewBox="0 0 72 72" fill="none" xmlns="http://www.w3.org/2000/svg">
<path d="M25.0819 2.36813C17.888 4.86376 11.6839 9.60056 7.38107 15.8828C3.07822 22.165 0.903326 29.6614 1.17586 37.2711C1.4484 44.8807 4.154 52.2024 8.89524 58.1606C13.6365 64.1189 20.1635 68.3998 27.5175 70.3744C33.4796 71.9128 39.7261 71.9804 45.72 70.5713C51.1499 69.3516 56.17 66.7427 60.2887 63C64.5755 58.9857 67.687 53.8789 69.2887 48.2288C71.0298 42.0844 71.3396 35.6227 70.1944 29.34H36.7144V43.2281H56.1037C55.7162 45.4432 54.8858 47.5573 53.6622 49.4439C52.4386 51.3306 50.847 52.951 48.9825 54.2081C46.6148 55.7743 43.9459 56.8281 41.1469 57.3019C38.3397 57.8239 35.4603 57.8239 32.6531 57.3019C29.8079 56.7136 27.1164 55.5393 24.75 53.8538C20.9483 51.1627 18.0938 47.3396 16.5937 42.93C15.0683 38.4378 15.0683 33.5678 16.5937 29.0756C17.6615 25.9268 19.4267 23.0599 21.7575 20.6887C24.4248 17.9255 27.8017 15.9502 31.5177 14.9798C35.2338 14.0094 39.1453 14.0812 42.8231 15.1875C45.6962 16.0695 48.3235 17.6104 50.4956 19.6875C52.6819 17.5125 54.8644 15.3319 57.0431 13.1456C58.1681 11.97 59.3944 10.8506 60.5025 9.64688C57.1869 6.56143 53.2951 4.16057 49.05 2.58188C41.3196 -0.225056 32.8611 -0.30049 25.0819 2.36813Z" fill="white"/>
<path d="M25.0819 2.36812C32.8605 -0.302305 41.3189 -0.228857 49.05 2.57625C53.2958 4.16567 57.1859 6.57809 60.4969 9.675C59.3719 10.8787 58.185 12.0037 57.0375 13.1737C54.855 15.3525 52.6744 17.5237 50.4956 19.6875C48.3235 17.6104 45.6962 16.0695 42.8231 15.1875C39.1465 14.0774 35.2351 14.0013 31.5181 14.9678C27.8011 15.9343 24.4221 17.9058 21.7519 20.6663C19.4211 23.0374 17.6559 25.9043 16.5881 29.0531L4.92751 20.025C9.1013 11.7482 16.328 5.41701 25.0819 2.36812Z" fill="#E33629"/>
<path d="M1.83374 28.9688C2.46049 25.8626 3.50102 22.8545 4.9275 20.025L16.5881 29.0756C15.0627 33.5678 15.0627 38.4378 16.5881 42.93C12.7031 45.93 8.81625 48.945 4.9275 51.975C1.35647 44.8668 0.267366 36.7678 1.83374 28.9688Z" fill="#F8BD00"/>
<path d="M36.7144 29.3344H70.1944C71.3396 35.6171 71.0298 42.0788 69.2887 48.2231C67.687 53.8733 64.5754 58.9801 60.2887 62.9944C56.5256 60.0581 52.7456 57.1444 48.9825 54.2081C50.8482 52.9497 52.4406 51.3275 53.6642 49.4389C54.8879 47.5502 55.7176 45.4339 56.1037 43.2169H36.7144C36.7087 38.5931 36.7144 33.9637 36.7144 29.3344Z" fill="#587DBD"/>
<path d="M4.92188 51.975C8.81063 48.975 12.6975 45.96 16.5825 42.93C18.0855 47.3411 20.9442 51.1644 24.75 53.8537C27.1238 55.5315 29.8211 56.6962 32.67 57.2738C35.4772 57.7957 38.3566 57.7957 41.1637 57.2738C43.9627 56.8 46.6317 55.7462 48.9994 54.18C52.7625 57.1163 56.5425 60.03 60.3056 62.9663C56.1875 66.711 51.1674 69.3218 45.7369 70.5431C39.7429 71.9522 33.4964 71.8847 27.5344 70.3462C22.8189 69.0872 18.4144 66.8677 14.5969 63.8269C10.5562 60.6189 7.256 56.5761 4.92188 51.975Z" fill="#319F43"/>
</svg>
