<svg width="72" height="72" viewBox="0 0 72 72" fill="none" xmlns="http://www.w3.org/2000/svg">
<path d="M36 0C31.2724 0 26.5911 0.954286 22.2234 2.80837C17.8557 4.66246 13.8871 7.38003 10.5442 10.8059C3.79285 17.7249 0 27.1089 0 36.8938C0 53.2008 10.332 67.036 24.624 71.9429C26.424 72.238 27 71.0943 27 70.0982V63.8631C17.028 66.0767 14.904 58.9193 14.904 58.9193C13.248 54.6397 10.908 53.496 10.908 53.496C7.632 51.2086 11.16 51.2823 11.16 51.2823C14.76 51.5406 16.668 55.0824 16.668 55.0824C19.8 60.6903 25.092 59.03 27.144 58.1446C27.468 55.7465 28.404 54.1232 29.412 53.2008C21.42 52.2785 13.032 49.1056 13.032 35.0491C13.032 30.9539 14.4 27.6703 16.74 25.0509C16.38 24.1285 15.12 20.2916 17.1 15.3109C17.1 15.3109 20.124 14.3148 27 19.0741C29.844 18.2624 32.94 17.8566 36 17.8566C39.06 17.8566 42.156 18.2624 45 19.0741C51.876 14.3148 54.9 15.3109 54.9 15.3109C56.88 20.2916 55.62 24.1285 55.26 25.0509C57.6 27.6703 58.968 30.9539 58.968 35.0491C58.968 49.1425 50.544 52.2416 42.516 53.1639C43.812 54.3076 45 56.5582 45 59.9893V70.0982C45 71.0943 45.576 72.2749 47.412 71.9429C61.704 66.9991 72 53.2008 72 36.8938C72 32.0488 71.0688 27.2513 69.2597 22.7751C67.4505 18.299 64.7988 14.2318 61.4558 10.8059C58.1129 7.38003 54.1443 4.66246 49.7766 2.80837C45.4089 0.954286 40.7276 0 36 0Z" fill="black"/>
</svg>
